<svg id="svg" version="1.1" width="400" height="431" xmlns="http://www.w3.org/2000/svg" xmlns:xlink="http://www.w3.org/1999/xlink" style="display: block;"><g id="svgg"><path id="path0" d="M61.144 16.750 C 60.634 17.712,58.750 22.775,56.955 28.000 C 55.161 33.225,53.311 37.752,52.844 38.060 C 52.378 38.369,50.023 44.219,47.612 51.060 C 45.201 57.902,42.277 65.975,41.115 69.000 C 39.007 74.485,39.001 74.818,39.001 190.750 L 39.000 307.000 79.000 307.000 L 119.000 307.000 119.000 329.000 L 119.000 351.000 141.328 351.000 L 163.656 351.000 185.578 329.012 L 207.500 307.024 239.878 307.012 L 272.257 307.000 309.938 269.250 C 330.663 248.488,350.405 228.881,353.810 225.679 L 360.000 219.858 360.000 117.429 L 360.000 15.000 211.035 15.000 C 70.184 15.000,62.020 15.095,61.144 16.750 M329.000 125.175 L 329.000 203.351 303.750 228.661 L 278.500 253.971 238.469 253.986 L 198.438 254.000 177.969 274.250 L 157.500 294.500 157.229 274.250 L 156.959 254.000 124.479 254.000 L 92.000 254.000 92.000 150.500 L 92.000 47.000 210.500 47.000 L 329.000 47.000 329.000 125.175 M170.000 147.000 L 170.000 192.000 185.500 192.000 L 201.000 192.000 201.000 147.000 L 201.000 102.000 185.500 102.000 L 170.000 102.000 170.000 147.000 M249.000 147.000 L 249.000 192.000 264.500 192.000 L 280.000 192.000 280.000 147.000 L 280.000 102.000 264.500 102.000 L 249.000 102.000 249.000 147.000 M57.000 391.500 L 57.000 422.000 66.000 422.000 L 75.000 422.000 75.000 406.500 L 75.000 391.000 81.500 391.000 L 88.000 391.000 88.000 406.500 L 88.000 422.000 97.000 422.000 L 106.000 422.000 106.000 403.328 L 106.000 384.655 100.543 379.328 L 95.087 374.000 85.043 374.000 L 75.000 374.000 75.000 367.500 L 75.000 361.000 66.000 361.000 L 57.000 361.000 57.000 391.500 M172.000 386.907 L 172.000 412.815 177.108 417.407 L 182.216 422.000 193.608 422.000 L 205.000 422.000 205.000 414.000 L 205.000 406.000 198.000 406.000 L 191.000 406.000 191.000 398.500 L 191.000 391.000 198.000 391.000 L 205.000 391.000 205.000 382.500 L 205.000 374.000 198.000 374.000 L 191.000 374.000 191.000 367.500 L 191.000 361.000 181.500 361.000 L 172.000 361.000 172.000 386.907 M15.216 379.281 L 10.000 384.563 10.000 398.689 L 10.000 412.815 15.108 417.407 L 20.216 422.000 34.108 422.000 L 48.000 422.000 48.000 414.000 L 48.000 406.000 38.500 406.000 L 29.000 406.000 29.000 398.500 L 29.000 391.000 38.500 391.000 L 48.000 391.000 48.000 382.500 L 48.000 374.000 34.216 374.000 L 20.432 374.000 15.216 379.281 M114.000 398.000 L 114.000 422.000 123.000 422.000 L 132.000 422.000 132.000 416.000 L 132.000 410.000 140.000 410.000 L 148.000 410.000 148.000 416.000 L 148.000 422.000 157.500 422.000 L 167.000 422.000 167.000 403.087 L 167.000 384.173 162.888 381.149 C 160.626 379.486,158.126 377.197,157.331 376.062 C 155.950 374.091,154.964 374.000,134.943 374.000 L 114.000 374.000 114.000 398.000 M230.000 398.000 L 230.000 422.000 249.500 422.000 L 269.000 422.000 269.000 414.000 L 269.000 406.000 259.000 406.000 L 249.000 406.000 249.000 390.000 L 249.000 374.000 239.500 374.000 L 230.000 374.000 230.000 398.000 M276.000 398.000 L 276.000 422.000 302.500 422.000 L 329.000 422.000 328.977 403.250 L 328.953 384.500 323.055 379.250 L 317.156 374.000 296.578 374.000 L 276.000 374.000 276.000 398.000 M339.216 379.281 L 334.000 384.563 334.000 403.281 L 334.000 422.000 359.000 422.000 L 384.000 422.000 384.000 409.500 L 384.000 397.000 376.000 397.000 L 368.000 397.000 368.000 402.500 L 368.000 408.000 360.500 408.000 L 353.000 408.000 353.000 399.500 L 353.000 391.000 368.500 391.000 L 384.000 391.000 384.000 382.500 L 384.000 374.000 364.216 374.000 L 344.432 374.000 339.216 379.281 M148.000 394.000 L 148.000 397.000 140.000 397.000 L 132.000 397.000 132.000 394.000 L 132.000 391.000 140.000 391.000 L 148.000 391.000 148.000 394.000 M310.000 398.500 L 310.000 406.000 302.500 406.000 L 295.000 406.000 295.000 398.500 L 295.000 391.000 302.500 391.000 L 310.000 391.000 310.000 398.500 " stroke="none" fill="#6441a5" fill-opacity="0.3" fill-rule="evenodd"></path></g></svg>