<?xml version="1.0" standalone="no"?>
<!DOCTYPE svg PUBLIC "-//W3C//DTD SVG 20010904//EN"
 "http://www.w3.org/TR/2001/REC-SVG-20010904/DTD/svg10.dtd">
<svg class="icon" version="1.0" xmlns="http://www.w3.org/2000/svg"
 width="882.000000pt" height="590.000000pt" viewBox="0 0 882.000000 590.000000"
 preserveAspectRatio="xMidYMid meet">
<metadata>
Created by potrace 1.13, written by Peter Selinger 2001-2015
</metadata>
<g transform="translate(0.000000,590.000000) scale(0.100000,-0.100000)" stroke="none">
<path d="M6980 5884 c-256 -6 -729 -15 -1052 -20 -418 -5 -585 -10 -581 -18 3
-6 0 -5 -8 2 -10 9 -130 12 -523 13 -281 0 -657 4 -836 8 -414 11 -508 0 -660
-82 -71 -38 -126 -82 -230 -188 -47 -48 -122 -112 -167 -143 l-83 -57 0 209 0
209 -77 7 c-42 3 -310 6 -596 6 l-520 0 19 -22 19 -23 -26 23 -25 22 -612 0
c-512 0 -618 -2 -647 -14 -19 -8 -35 -22 -35 -30 0 -8 -4 -16 -8 -18 -11 -5
-109 -209 -149 -313 -141 -363 -194 -746 -173 -1245 13 -288 19 -351 39 -375
15 -19 15 -19 -2 -6 -17 13 -18 12 -13 -10 3 -13 8 -78 11 -144 19 -382 94
-648 243 -860 75 -107 149 -169 236 -198 45 -15 154 -17 1178 -17 l1128 0 0
175 0 175 238 0 c168 0 244 -4 261 -13 15 -7 33 -32 45 -62 65 -158 200 -329
376 -474 225 -186 295 -278 358 -471 57 -174 79 -348 89 -690 7 -270 -10 -477
-68 -830 -23 -140 -22 -263 3 -298 8 -12 18 -19 23 -14 5 4 5 2 2 -4 -9 -16
23 -56 40 -50 8 3 11 1 8 -4 -3 -5 11 -16 31 -25 106 -44 434 24 549 115 150
120 280 367 325 620 15 81 15 315 1 435 -6 50 -14 155 -17 235 -11 249 20 423
107 597 80 162 160 227 302 244 40 5 250 23 467 39 478 37 773 66 858 86 90
20 214 73 205 87 -3 7 -2 9 2 4 22 -19 163 114 211 199 68 122 78 162 78 334
0 146 -2 159 -28 230 -27 71 -85 172 -107 186 -6 3 -24 24 -40 46 -39 55 -39
98 1 148 33 42 68 116 100 211 17 50 19 64 8 77 -8 9 -8 13 -2 9 16 -10 24 14
30 97 17 212 -81 391 -288 527 -88 58 -88 57 -63 174 29 136 16 262 -36 369
-16 32 -29 62 -29 67 0 5 69 9 153 9 143 0 750 22 957 35 255 16 512 36 574
45 108 16 184 71 238 173 20 36 23 57 23 142 0 95 -2 103 -33 157 -52 89 -129
139 -244 158 -197 31 -745 36 -1558 14z"/>
</g>
</svg>
