<svg class="icon" version="1.0" xmlns="http://www.w3.org/2000/svg"
 width="882.000000pt" height="590.000000pt" viewBox="0 0 882.000000 590.000000"
 preserveAspectRatio="xMidYMid meet">
<metadata>
Created by potrace 1.13, written by Peter Selinger 2001-2015
</metadata>
<g transform="translate(0.000000,590.000000) scale(0.100000,-0.100000)"
stroke="none">
<path d="M4232 5884 c-18 -8 -30 -19 -27 -24 3 -5 0 -7 -8 -4 -17 6 -49 -34
-40 -50 3 -6 3 -8 -2 -4 -5 5 -15 -2 -23 -14 -25 -35 -26 -158 -3 -298 58
-353 75 -560 68 -830 -10 -342 -32 -516 -89 -690 -63 -193 -133 -285 -358
-471 -176 -145 -311 -316 -376 -474 -12 -30 -30 -55 -45 -62 -17 -9 -93 -13
-261 -13 l-238 0 0 175 0 175 -1128 0 c-1024 0 -1133 -2 -1178 -17 -87 -29
-161 -91 -236 -198 -149 -212 -224 -478 -243 -860 -3 -66 -8 -131 -11 -144 -5
-22 -4 -23 13 -10 17 13 17 13 2 -6 -20 -24 -26 -87 -39 -375 -21 -499 32
-882 173 -1245 40 -104 138 -308 149 -313 4 -2 8 -10 8 -18 0 -8 16 -22 35
-30 29 -12 135 -14 647 -14 l612 0 25 23 26 22 -19 -22 -19 -23 520 0 c286 0
554 3 596 6 l77 7 0 209 0 209 83 -57 c45 -31 120 -95 167 -143 104 -106 159
-150 230 -188 152 -82 246 -93 660 -82 179 4 555 8 836 8 393 1 513 4 523 14
11 9 13 9 7 0 -6 -10 61 -13 321 -13 180 0 591 -7 913 -15 1240 -31 1740 -30
1955 5 118 19 195 68 247 158 31 54 33 62 33 157 0 85 -3 106 -23 142 -54 102
-130 157 -238 173 -62 9 -319 29 -574 45 -207 13 -814 35 -957 35 -84 0 -153
4 -153 9 0 5 13 35 29 67 52 107 65 233 36 369 -25 117 -25 116 63 174 207
136 305 315 288 527 -6 83 -14 107 -30 97 -6 -4 -6 0 2 9 11 13 9 27 -8 77
-32 95 -67 169 -100 211 -40 50 -40 93 -1 148 16 22 34 43 40 46 22 14 80 115
107 186 26 71 28 84 28 230 0 172 -10 212 -78 334 -48 85 -189 218 -211 199
-4 -5 -5 -3 -2 4 9 14 -115 67 -205 87 -85 20 -380 49 -858 86 -217 16 -427
34 -467 39 -142 17 -222 82 -302 244 -87 174 -118 348 -107 597 3 80 11 186
17 235 14 120 14 354 -1 435 -45 253 -175 500 -325 620 -116 91 -448 160 -553
114z"/>
</g>
</svg>
